<?xml version="1.0" encoding="utf-8"?>
<!-- Generator: Adobe Illustrator 18.0.0, SVG Export Plug-In . SVG Version: 6.00 Build 0)  -->
<!DOCTYPE svg PUBLIC "-//W3C//DTD SVG 1.1//EN" "http://www.w3.org/Graphics/SVG/1.1/DTD/svg11.dtd">
<svg version="1.1" id="Layer_1" xmlns="http://www.w3.org/2000/svg" xmlns:xlink="http://www.w3.org/1999/xlink" x="0px" y="0px"
	 viewBox="0 0 32.8 33.6" enable-background="new 0 0 32.8 33.6" xml:space="preserve">
<g>
	<path fill="white" d="M14.7,13L1.6,25.3c-0.1,0.1-0.1,0.2-0.1,0.3c0,0.1,0,0.2,0.1,0.3L3.7,28C3.8,28,3.9,28.1,4,28.1
		c0.1,0,0.2,0,0.3-0.1l12.3-13.1c0.1-0.2,0.1-0.4,0-0.5L15.2,13C15.1,12.8,14.9,12.8,14.7,13z"/>
	<path fill="white" d="M27.3,27.7c-0.1-0.1-0.2-0.1-0.3-0.1H14c-0.1,0-0.2,0-0.3,0.1c-0.1,0.1-0.1,0.2-0.1,0.3v1.4h-1.5v1.4H9.9
		v1.4h21.3v-1.4h-2.3v-1.4h-1.5V28C27.4,27.9,27.4,27.8,27.3,27.7z"/>
	<path fill="white" d="M12.8,9l7.5,7.5l5.2-5.2c0.1-0.1,0.1-0.1,0.2-0.1l-7.6-7.6c0,0.1-0.1,0.1-0.1,0.2L12.8,9z"/>
	<path fill="#AAD3C7" d="M25.6,11.2c-0.1,0-0.1,0.1-0.2,0.1l-5.2,5.2l-0.1,0.1c-0.6,0.6-0.6,1.6,0,2.2c0.6,0.6,1.6,0.6,2.2,0
		l5.2-5.2c0.6-0.6,0.6-1.6,0-2.2C27.1,10.8,26.3,10.8,25.6,11.2z"/>
	<path fill="white" d="M15.7,1.6l-5.2,5.2c-0.6,0.6-0.6,1.6,0,2.2c0.6,0.6,1.6,0.6,2.2,0L12.8,9l5.2-5.2C18,3.8,18,3.7,18.1,3.7
		c0.5-0.6,0.4-1.5-0.1-2.1C17.3,1,16.3,1,15.7,1.6z"/>
</g>
</svg>
